<svg width="350" height="74" viewBox="0 0 350 74" fill="none" xmlns="http://www.w3.org/2000/svg">
<path fill-rule="evenodd" clip-rule="evenodd" d="M252.534 0.95166H299.007V38.0136H252.534V0.95166ZM260.861 31.5899H290.68V7.37538H260.861V31.5899Z" fill="white"/>
<path d="M8.59138 26.3822C8.59138 30.5854 11.9486 32.2508 21.2802 32.2508C30.929 32.2508 33.4932 30.6647 33.4932 27.6511C33.4932 24.5846 31.3784 23.1042 19.8527 22.3112C4.67899 21.2274 0.581557 17.7115 0.581557 11.0499C0.581557 4.22962 6.4237 0.0793152 20.4871 0.0793152C35.4494 0.0793152 40.7364 3.54231 40.7364 10.9441C40.7364 11.7372 40.7364 12.4774 40.6835 13.3233C39.7319 13.2704 38.2251 13.2175 36.6918 13.2175C35.1057 13.2175 33.5196 13.2704 32.5944 13.3233C32.6473 12.821 32.6473 12.2394 32.6473 11.8429C32.6473 8.27418 30.2152 6.45016 20.3021 6.45016C11.5521 6.45016 8.9879 7.98339 8.9879 10.7591C8.9879 13.3233 10.4154 14.9622 22.7341 15.8875C37.0619 17.077 41.7674 20.0906 41.7674 27.3074C41.7674 34.7621 35.9781 38.8331 21.4124 38.8331C6.23866 38.8331 0.0528564 35.2644 0.0528564 27.8097C0.0528564 26.9638 0.0528564 26.1707 0.158597 25.2983C1.24243 25.457 2.77567 25.4834 4.3089 25.4834C5.94787 25.4834 7.4811 25.4834 8.61781 25.3777V26.3822H8.59138Z" fill="white"/>
<path fill-rule="evenodd" clip-rule="evenodd" d="M81.182 29.8716C82.8739 33.6254 84.2485 36.6918 84.6979 38.0136H95.1661C89.6941 28.5234 78.9615 7.13746 75.9479 0.95166H63.2062C60.5891 6.68807 49.4071 28.9728 44.2787 38.0136H54.0068C54.6412 36.4539 56.0687 33.4403 57.7606 29.8716C61.858 29.8187 66.2991 29.8187 69.3127 29.8187C72.6699 29.8187 76.926 29.8187 81.182 29.8716ZM77.5848 22.1597C77.8502 22.7135 78.1156 23.267 78.3799 23.818C76.3817 23.8513 74.2891 23.8636 72.3928 23.8748C71.2786 23.8813 70.2323 23.8875 69.3127 23.8973C66.9864 23.8973 63.7349 23.8973 60.6684 23.8444C61.9224 21.191 63.2264 18.4877 64.4343 15.9834C64.9834 14.8451 65.5126 13.7479 66.0083 12.7153L66.2246 12.261C67.6938 9.17588 68.7148 7.03176 69.4713 5.39275C69.538 5.53729 69.6064 5.68577 69.6767 5.83837C70.4421 7.49987 71.4332 9.65129 72.9343 12.5566C74.3424 15.3957 75.9653 18.7812 77.5848 22.1597Z" fill="white"/>
<path d="M143.278 0.951667C143.172 5.31345 143.119 11.5786 143.119 19.4298C143.119 27.5718 143.119 33.0702 143.225 38.0136H134.369C131.752 34.4184 120.967 23.4743 113.168 15.5702C111.344 13.6405 109.573 11.605 108.119 9.70167C108.304 12.6095 108.41 15.4909 108.516 18.2402C108.516 28.2855 108.516 35.1851 108.674 38.0136H100.427C100.48 33.1231 100.585 27.3867 100.585 19.4826C100.585 11.6314 100.585 5.68354 100.427 0.951667H110.604C112.587 3.78022 124.483 15.5174 131.514 22.9985C133.1 24.6903 134.634 26.5672 135.823 28.4705L135.929 28.4177C135.691 25.642 135.532 22.8928 135.532 20.355C135.532 12.4509 135.427 4.20318 135.189 0.925232H143.278V0.951667Z" fill="white"/>
<path fill-rule="evenodd" clip-rule="evenodd" d="M196.439 18.9804C196.439 6.29154 190.491 0.95166 175.079 0.95166H153.641C153.799 5.70997 153.799 11.6843 153.799 19.5355C153.799 27.3867 153.799 32.8852 153.641 38.0136H175C190.702 38.0136 196.439 31.9335 196.439 18.9804ZM174.815 7.7719C183.961 7.7719 187.953 10.389 187.953 19.139C187.953 28.074 183.697 31.1405 174.762 31.1669C173.691 31.1669 172.705 31.1721 171.769 31.177C168.476 31.1943 165.81 31.2083 162.311 30.9819C162.258 28.2591 162.258 24.9018 162.258 19.7998C162.258 15.9403 162.311 11.5785 162.417 7.93051C166.224 7.82477 170.321 7.7719 174.815 7.7719Z" fill="white"/>
<path fill-rule="evenodd" clip-rule="evenodd" d="M240.77 20.2757C239.528 19.8263 237.942 19.6412 236.065 19.4826H236.091V19.2447C238.259 19.0597 240.03 18.6896 241.326 18.108C244.339 16.6805 245.714 14.4864 245.714 10.4418C245.714 3.78021 241.22 0.95166 231.783 0.95166H204.607C204.845 5.84214 204.845 11.6314 204.845 19.4826C204.845 27.3338 204.845 32.8852 204.607 38.0136H232.364C241.537 38.0136 246.242 35.0529 246.242 28.1269C246.242 23.9237 244.577 21.571 240.77 20.2757ZM215.217 6.90844H215.217L213.252 6.92598C213.199 9.59592 213.199 12.9532 213.199 16.469C217.751 16.6126 221.986 16.597 225.852 16.5829H225.853C226.97 16.5788 228.057 16.5748 229.113 16.5748C234.902 16.5219 237.255 14.8036 237.255 11.4728C237.255 8.11556 234.981 6.82024 229.403 6.82024C225.056 6.82024 220.395 6.86202 215.217 6.90844ZM237.598 26.4879C237.598 23.1307 235.272 21.756 229.086 21.756C224.539 21.756 218.909 21.756 213.172 21.8618C213.172 25.3248 213.172 28.682 213.278 31.5106C219.86 31.6163 225.042 31.6163 229.536 31.6163C235.325 31.5899 237.598 30.3474 237.598 26.4879Z" fill="white"/>
<path d="M349.313 0.95166C345.215 5.39275 339.426 12.3716 333.69 19.4298C339.611 26.3029 345.982 33.5989 349.947 38.0136H338.421C336.254 35.0529 333.927 32.4358 330.861 28.682C329.09 26.4615 327.557 24.5317 326.42 22.8134C325.23 24.5846 323.644 26.5672 321.873 28.682C318.807 32.4358 316.586 35.1057 314.551 38.0136H303.924C307.677 33.9162 314.101 26.25 320.076 19.2447C314.392 12.4245 308.893 5.81571 304.717 0.95166H315.925C318.146 4.12387 320.974 7.58686 323.882 11.0234C325.363 12.8474 326.605 14.2749 327.583 15.676C328.535 14.3014 329.566 12.9532 331.046 11.1292C334.298 7.08459 336.677 4.12387 338.95 0.95166H349.313Z" fill="white"/>
<path fill-rule="evenodd" clip-rule="evenodd" d="M107.3 73.648C111.344 73.648 114.041 71.1103 114.041 67.2772C114.041 63.4441 111.344 60.9063 107.3 60.9063C103.255 60.9063 100.559 63.4441 100.559 67.2772C100.559 71.1103 103.255 73.648 107.3 73.648ZM244.207 73.648C246.137 73.648 247.881 73.1722 249.071 72.2998L248.278 70.5023C247.088 71.3217 245.793 71.7183 244.339 71.7183C241.325 71.7183 239.475 70.0264 239.475 67.3036C239.475 64.6337 241.273 62.889 244.207 62.889C245.502 62.889 246.718 63.2326 247.934 63.9992L248.648 62.2017C247.353 61.3293 245.846 60.9063 244.128 60.9063C239.924 60.9063 237.254 63.3912 237.254 67.3036C237.228 71.216 239.872 73.648 244.207 73.648ZM262.711 61.1178V66.2727H255.362V61.1178H253.168V73.4366H255.362V68.176H262.685V73.4366H264.879V61.1178H262.711ZM230.011 68.6518L227.738 63.3912L225.438 68.6518H230.011ZM232.153 73.4366H234.532L228.875 61.1178H226.654L220.997 73.4366H223.297L224.619 70.4758H230.804L232.153 73.4366ZM217.693 61.1178V62.9947V63.0211H208.969V66.2991H216.529V68.176H208.969V71.5597H217.693V73.4366H206.775V61.1178H217.693ZM197.866 71.5597H192.579V68.176H197.84C199.32 68.176 200.06 68.7311 200.06 69.8678C200.06 70.9781 199.32 71.5597 197.866 71.5597ZM197.655 62.9947H192.606V66.2727H197.655C199.029 66.2727 199.743 65.7175 199.743 64.6337C199.743 63.5498 199.029 62.9947 197.655 62.9947ZM199.955 67.1186C201.25 66.6692 201.911 65.7704 201.911 64.3958C201.911 62.2545 200.457 61.1443 197.681 61.1443H190.385V73.463H197.946C200.801 73.463 202.307 72.2998 202.307 70.1057C202.307 68.5196 201.514 67.5415 199.955 67.1186ZM174.551 68.6518L172.277 63.3912L169.977 68.6518H174.551ZM176.692 73.4366H179.071L173.414 61.1178H171.193L165.536 73.4366H167.836L169.158 70.4758H175.344L176.692 73.4366ZM159.403 70.0529V61.1178H161.465V73.4366H159.43L151.869 63.6027V73.4366H149.781V61.1178H152.53L159.403 70.0529ZM138.916 63.3912L141.19 68.6518H136.616L138.916 63.3912ZM145.71 73.4366H143.331L141.983 70.4758H135.797L134.475 73.4366H132.175L137.832 61.1178H140.053L145.71 73.4366ZM120.702 71.5597V61.1443H118.508V73.463H129.056V71.5861H120.702V71.5597ZM102.779 67.2772C102.779 69.9207 104.63 71.6918 107.3 71.6918C109.996 71.6918 111.82 69.9207 111.82 67.2772C111.82 64.6337 109.996 62.8625 107.3 62.8625C104.603 62.8625 102.779 64.6337 102.779 67.2772ZM96.8844 69.815C96.8844 72.2998 94.8753 73.648 91.1744 73.648C88.7953 73.648 86.7069 73.04 85.0944 71.9033L86.046 70.1586C87.4999 71.1896 89.2711 71.7447 91.1744 71.7447C93.4478 71.7447 94.6638 71.1367 94.6638 69.9207C94.6638 68.9162 93.7651 68.5196 91.0422 68.3082C87.1034 68.0174 85.6495 67.0393 85.6495 64.713C85.6495 62.3338 87.6586 60.9328 91.0687 60.9328C93.0777 60.9328 94.796 61.435 96.1971 62.4131L95.3247 64.105C94.1351 63.2591 92.6812 62.8361 91.0422 62.8361C89.0596 62.8361 87.87 63.497 87.87 64.6072C87.87 65.6118 88.7424 66.0083 91.4652 66.2198C95.4305 66.5106 96.8844 67.4887 96.8844 69.815Z" fill="white"/>
</svg>
