<svg width="103" height="35" viewBox="0 0 103 35" fill="none" xmlns="http://www.w3.org/2000/svg">
<path fill-rule="evenodd" clip-rule="evenodd" d="M42.9167 25.5911H38.625V34.1744H35.7639V14.1466H42.9167C46.0798 14.1466 48.6389 16.7057 48.6389 19.8688C48.6389 23.0319 46.0798 25.5911 42.9167 25.5911ZM42.9167 17.0077H38.625V22.7299H42.9167C44.4983 22.7299 45.7778 21.4504 45.7778 19.8688C45.7778 18.2873 44.4983 17.0077 42.9167 17.0077Z" fill="#002453"/>
<rect x="17.882" y="31.3133" width="12.875" height="2.86111" fill="#002453"/>
<rect x="17.882" y="22.7299" width="12.875" height="2.86111" fill="#002453"/>
<rect x="17.882" y="14.1466" width="12.875" height="2.86111" fill="#002453"/>
<path d="M62.9444 14.1466V22.7299H55.7917V14.1466H52.9305V34.1744H55.7917V25.5911H62.9444V34.1744H65.8055V14.1466H62.9444Z" fill="#002453"/>
<path d="M0 14.1466V17.0077H9.44961L0 31.3133V34.1744H12.875V31.3133H3.42539L12.875 17.0077V14.1466H0Z" fill="#002453"/>
<path d="M82.8053 14.1466L77.25 22.563L71.6867 14.1466H68.2614L75.8195 25.5911V34.1744H78.6806V25.5911L86.2387 14.1466H82.8053Z" fill="#002453"/>
<path fill-rule="evenodd" clip-rule="evenodd" d="M97.2222 25.4242L103 34.1744H99.5667L93.9001 25.5911H91.5556V34.1744H88.6945V14.1466H95.8472C99.0104 14.1466 101.569 16.7057 101.569 19.8688C101.569 22.5551 99.7177 24.8122 97.2222 25.4242ZM95.8472 17.0077H91.5556V22.7299H95.8472C97.4288 22.7299 98.7083 21.4504 98.7083 19.8688C98.7083 18.2873 97.4288 17.0077 95.8472 17.0077Z" fill="#002453"/>
<path fill-rule="evenodd" clip-rule="evenodd" d="M5.40432 2.41602C5.40432 3.05977 5.15 3.65584 4.72878 4.085C5.32485 4.53007 5.70633 5.22945 5.71427 6.01625C5.71427 7.35144 4.63341 8.42436 3.30617 8.42436H1.20008H0V0.0158691H1.19213H2.99622C4.3314 0.0158691 5.40432 1.08879 5.40432 2.41602ZM1.20008 1.21595H3.00417C3.66381 1.21595 4.20424 1.75638 4.20424 2.41602C4.20424 3.08362 3.66381 3.6161 3.00417 3.6161H1.20008V1.21595ZM3.30617 7.22428H1.20008V4.81618H3.30617C3.97377 4.81618 4.50625 5.35661 4.50625 6.01625C4.50625 6.6918 3.97377 7.22428 3.30617 7.22428Z" fill="#002453"/>
<rect x="15.6249" y="0.0158691" width="1.20008" height="8.41644" fill="#002453"/>
<path fill-rule="evenodd" clip-rule="evenodd" d="M41.1762 2.41602C41.1762 3.05977 40.9219 3.65584 40.5006 4.085C41.0888 4.53007 41.4702 5.22945 41.4782 6.01625C41.4782 7.35144 40.3973 8.42436 39.0701 8.42436H36.964H35.7639V0.0158691H36.964H38.7681C40.1033 0.0158691 41.1762 1.08879 41.1762 2.41602ZM36.964 1.21595H38.7681C39.4277 1.21595 39.9682 1.75638 39.9682 2.41602C39.9682 3.08362 39.4277 3.6161 38.7681 3.6161H36.964V1.21595ZM39.0701 7.22428H36.964V4.81618H39.0701C39.7377 4.81618 40.2702 5.35661 40.2702 6.01625C40.2702 6.6918 39.7377 7.22428 39.0701 7.22428Z" fill="#002453"/>
<path d="M19.233 0.0158691V8.4323H20.4331H24.0413V7.22428H20.4331V0.0158691H19.233Z" fill="#002453"/>
<path d="M23.7393 0.0158691V1.21595H26.1474V8.4323H27.3474V1.21595H29.7555V0.0158691H23.7393Z" fill="#002453"/>
<path d="M12.0246 5.4202C12.0246 6.41364 11.2139 7.22429 10.2205 7.22429C9.22703 7.22429 8.41639 6.41364 8.41639 5.4202V0.00793457H7.21631V5.4202C7.21631 7.08124 8.55944 8.42437 10.2205 8.42437C11.8815 8.42437 13.2246 7.08124 13.2246 5.4202V0.00793457H12.0246V5.4202Z" fill="#002453"/>
<path d="M47.8839 0.0158691L45.5552 3.55252L43.2187 0.0158691H41.7722L44.9512 4.82413V8.4323H46.1513V4.82413L49.3303 0.0158691H47.8839Z" fill="#002453"/>
</svg>
