<svg width="100" height="14" viewBox="0 0 100 14" fill="none" xmlns="http://www.w3.org/2000/svg">
<path fill-rule="evenodd" clip-rule="evenodd" d="M60.2897 13.2046H58.1387C58.0948 12.0457 57.9894 10.7551 57.8138 9.41179L57.1993 4.27571L52.2914 13.2309C52.1861 13.4065 52.0017 13.3977 51.9051 13.2397L46.8305 4.19669L46.2511 8.26166C46.0052 10.2634 45.856 11.7384 45.777 13.1958H44.0913C44.4161 11.5452 44.6795 10.1142 45.0043 7.95437L46.172 0.228299C46.2247 -0.0526496 46.4793 -0.0350904 46.5935 0.1844L52.4407 10.3688L55.935 4.00354C56.6374 2.76561 57.4539 1.25552 58.0245 0.19318C58.1562 -0.0526496 58.4108 -0.0350904 58.4547 0.272197L59.5961 8.7621C59.7805 10.1493 60.0351 11.6769 60.2897 13.2046ZM38.2616 13.4329L33.9508 3.67869L30.0526 13.4241C29.9297 13.6436 29.7102 13.6348 29.6137 13.3802L24.7849 0.149282H26.7603L30.1316 9.80688L33.9508 0.210739C34.0474 -0.04387 34.3108 -0.0526496 34.4249 0.228299L38.7006 9.80688C40.1843 5.84726 41.3081 2.40565 41.9578 0.149282H43.6347C42.6338 2.5988 38.6742 13.4329 38.6742 13.4329C38.5864 13.6436 38.3406 13.6436 38.2616 13.4329ZM11.8525 5.59265V13.2397C11.8525 13.4943 11.633 13.5382 11.4837 13.3802L1.67686 3.72259V6.83936L1.67669 7.40486C1.67556 9.79599 1.67489 11.2377 1.87879 13.187H0.0701904C0.237003 11.2028 0.263342 9.35912 0.263342 6.73401L0.228224 0.316095C0.228224 0.026367 0.447715 -0.04387 0.605748 0.122943L10.4126 9.58739V5.50486L10.4126 5.2515C10.413 3.3539 10.4132 1.94859 10.2282 0.140502H12.0456C11.9051 2.04568 11.8525 3.83673 11.8525 5.59265ZM68.4723 0.1844L70.7813 5.12733C71.9578 7.77 73.0816 10.1756 74.5127 13.2134H72.2124L70.4477 8.97281H65.3994L64.5215 11.036C64.223 11.7472 63.942 12.59 63.7401 13.2134H62.0368C62.4144 12.4934 62.8797 11.5452 63.3187 10.5795L68.0421 0.1844C68.1475 -0.0350904 68.3845 -0.0175311 68.4723 0.1844ZM65.8296 7.91048L67.9367 3.04656L70 7.91048H65.8296ZM90.4126 4.90784C90.4126 3.38019 90.4565 1.87887 90.5794 0.158062H88.4284C88.5513 1.90521 88.5777 3.56456 88.5777 5.4873V7.99827C88.5777 10.2371 88.5513 11.6594 88.4021 13.2134H88.4108H90.6058C90.4741 11.5628 90.4038 10.439 90.4038 8.47237V6.70767L90.5531 6.61109L96.7691 12.8271C97.0588 13.1256 97.287 13.2134 97.6997 13.2134H100L92.2212 5.95262L99.6927 0.166841H97.6382L90.4126 6.14577V4.90784ZM23.0816 13.2134V11.8174C21.3696 11.9842 18.604 12.0457 17.2958 12.0281C17.207 10.9701 17.2073 9.80061 17.2079 7.5013L17.208 6.87448C17.208 6.87448 21.115 6.91838 22.5285 6.97984V5.61021C20.8604 5.68045 17.208 5.68923 17.208 5.68923C17.208 3.65235 17.2256 2.50222 17.3134 1.31697C18.5513 1.29941 21.4925 1.38721 22.985 1.48379V0.158062H15.2063C15.3204 1.90521 15.3555 3.56456 15.3555 5.4873V7.99827C15.3555 10.2371 15.3292 11.6594 15.1799 13.2134H23.0816ZM81.3257 7.39248C83.7313 7.05885 85.0834 5.63655 85.0834 3.52066C85.0834 1.50135 83.7313 0.114163 80.4653 0.114163C80.0254 0.114163 79.3701 0.128216 78.7363 0.141806C78.1431 0.154527 77.5688 0.166841 77.208 0.166841H76.453C76.5671 1.92277 76.6022 3.59968 76.6022 5.5312V8.04217C76.6022 10.281 76.5408 11.7296 76.4266 13.2134H78.5952C78.4547 11.3433 78.3757 9.81566 78.3757 8.10363V7.43638C78.3757 7.43638 78.9025 7.54173 79.3064 7.55051L83.5469 12.8183C83.7928 13.1344 84.0122 13.2134 84.4776 13.2134H86.4266C84.7058 11.317 83.064 9.43813 81.3257 7.39248ZM78.4986 1.07992C78.4284 2.73049 78.3933 4.63567 78.3933 6.48818C78.7708 6.58475 79.4468 6.66377 79.9473 6.67255C82.2739 6.67255 83.1694 5.52242 83.1694 3.59968C83.1694 2.06324 82.309 0.983347 80.1229 0.983347C79.3854 0.983347 78.7971 1.0448 78.4986 1.07992Z" fill="#231F20"/>
</svg>
